<?xml version="1.0" encoding="UTF-8" standalone="no"?>
<!DOCTYPE svg PUBLIC "-//W3C//DTD SVG 1.1//EN"
 "http://www.w3.org/Graphics/SVG/1.1/DTD/svg11.dtd">
<!-- Generated by graphviz version 2.26.3 (20100126.1600)
 -->
<!-- Title: scorehero Pages: 1 -->
<svg width="798pt" height="490pt"
 viewBox="0.00 0.00 798.00 490.00" xmlns="http://www.w3.org/2000/svg" xmlns:xlink="http://www.w3.org/1999/xlink">
<g id="graph1" class="graph" transform="scale(1 1) rotate(0) translate(4 486)">
<title>scorehero</title>
<polygon fill="white" stroke="white" points="-4,5 -4,-486 795,-486 795,5 -4,5"/>
<g id="graph8" class="cluster"><title>clusterAppTriad</title>
<polygon fill="none" stroke="black" points="104,-288 104,-416 278,-416 278,-288 104,-288"/>
</g>
<g id="graph10" class="cluster"><title>clusterKeypressTriad</title>
<polygon fill="none" stroke="black" points="8,-140 8,-268 414,-268 414,-140 8,-140"/>
</g>
<g id="graph12" class="cluster"><title>clusterTuneTriad</title>
<polygon fill="none" stroke="black" points="454,-214 454,-342 782,-342 782,-214 454,-214"/>
</g>
<g id="graph14" class="cluster"><title>clusterNodeDuad</title>
<polygon fill="none" stroke="black" points="401,-66 401,-120 679,-120 679,-66 401,-66"/>
</g>
<!-- AppView -->
<g id="node3" class="node"><title>AppView</title>
<ellipse fill="none" stroke="red" cx="216" cy="-389" rx="53.9477" ry="18.3848"/>
<text text-anchor="middle" x="216" y="-385.4" font-family="Times Roman,serif" font-size="14.00">AppView</text>
</g>
<!-- StaveView -->
<g id="node4" class="node"><title>StaveView</title>
<ellipse fill="none" stroke="red" cx="352" cy="-315" rx="63.8479" ry="18.3848"/>
<text text-anchor="middle" x="352" y="-311.4" font-family="Times Roman,serif" font-size="14.00">StaveView</text>
</g>
<!-- AppView&#45;&gt;StaveView -->
<g id="edge21" class="edge"><title>AppView&#45;&gt;StaveView</title>
<path fill="none" stroke="black" d="M244.842,-373.307C264.627,-362.541 291.122,-348.125 312.816,-336.321"/>
<polygon fill="black" stroke="black" points="314.674,-339.294 321.786,-331.44 311.329,-333.145 314.674,-339.294"/>
</g>
<!-- TuneView -->
<g id="node5" class="node"><title>TuneView</title>
<ellipse fill="none" stroke="red" cx="533" cy="-315" rx="58.8978" ry="18.3848"/>
<text text-anchor="middle" x="533" y="-311.4" font-family="Times Roman,serif" font-size="14.00">TuneView</text>
</g>
<!-- AppView&#45;&gt;TuneView -->
<g id="edge23" class="edge"><title>AppView&#45;&gt;TuneView</title>
<path fill="none" stroke="black" d="M267.395,-382.899C319.274,-375.95 401.324,-362.788 470,-342 476.969,-339.891 484.205,-337.247 491.184,-334.445"/>
<polygon fill="black" stroke="black" points="492.609,-337.643 500.49,-330.562 489.913,-331.183 492.609,-337.643"/>
</g>
<!-- AppController -->
<g id="node10" class="node"><title>AppController</title>
<ellipse fill="none" stroke="green" cx="191" cy="-315" rx="79.196" ry="18.3848"/>
<text text-anchor="middle" x="191" y="-311.4" font-family="Times Roman,serif" font-size="14.00">AppController</text>
</g>
<!-- AppView&#45;&gt;AppController -->
<g id="edge42" class="edge"><title>AppView&#45;&gt;AppController</title>
<path fill="none" stroke="black" d="M209.691,-370.327C206.938,-362.176 203.648,-352.438 200.601,-343.42"/>
<polygon fill="black" stroke="black" points="203.823,-342.021 197.307,-333.667 197.191,-344.262 203.823,-342.021"/>
</g>
<!-- KeypressView -->
<g id="node6" class="node"><title>KeypressView</title>
<ellipse fill="none" stroke="red" cx="323" cy="-241" rx="79.196" ry="18.3848"/>
<text text-anchor="middle" x="323" y="-237.4" font-family="Times Roman,serif" font-size="14.00">KeypressView</text>
</g>
<!-- StaveView&#45;&gt;KeypressView -->
<g id="edge25" class="edge"><title>StaveView&#45;&gt;KeypressView</title>
<path fill="none" stroke="black" d="M344.682,-296.327C341.454,-288.089 337.59,-278.229 334.024,-269.13"/>
<polygon fill="black" stroke="black" points="337.223,-267.701 330.316,-259.667 330.706,-270.255 337.223,-267.701"/>
</g>
<!-- NoteView -->
<g id="node7" class="node"><title>NoteView</title>
<ellipse fill="none" stroke="red" cx="468" cy="-93" rx="58.8978" ry="18.3848"/>
<text text-anchor="middle" x="468" y="-89.4" font-family="Times Roman,serif" font-size="14.00">NoteView</text>
</g>
<!-- TuneView&#45;&gt;NoteView -->
<g id="edge30" class="edge"><title>TuneView&#45;&gt;NoteView</title>
<path fill="none" stroke="black" d="M493.241,-301.111C478.047,-293.709 462.181,-282.966 453,-268 423.23,-219.472 436.625,-195.784 448,-140 449.302,-133.614 451.505,-127.02 453.985,-120.865"/>
<polygon fill="black" stroke="black" points="457.216,-122.21 458.018,-111.646 450.803,-119.404 457.216,-122.21"/>
</g>
<!-- TuneController -->
<g id="node12" class="node"><title>TuneController</title>
<ellipse fill="none" stroke="green" cx="546" cy="-241" rx="84.1457" ry="18.3848"/>
<text text-anchor="middle" x="546" y="-237.4" font-family="Times Roman,serif" font-size="14.00">TuneController</text>
</g>
<!-- TuneView&#45;&gt;TuneController -->
<g id="edge38" class="edge"><title>TuneView&#45;&gt;TuneController</title>
<path fill="none" stroke="black" d="M536.28,-296.327C537.697,-288.264 539.386,-278.648 540.956,-269.711"/>
<polygon fill="black" stroke="black" points="544.437,-270.122 542.721,-259.667 537.543,-268.911 544.437,-270.122"/>
</g>
<!-- TuneModel -->
<g id="node17" class="node"><title>TuneModel</title>
<ellipse fill="none" stroke="blue" cx="711" cy="-241" rx="63.1385" ry="18.3848"/>
<text text-anchor="middle" x="711" y="-237.4" font-family="Times Roman,serif" font-size="14.00">TuneModel</text>
</g>
<!-- TuneView&#45;&gt;TuneModel -->
<g id="edge36" class="edge"><title>TuneView&#45;&gt;TuneModel</title>
<path fill="none" stroke="black" d="M568.593,-300.203C596.332,-288.671 635.054,-272.573 665.12,-260.074"/>
<polygon fill="black" stroke="black" points="666.662,-263.223 674.552,-256.153 663.975,-256.76 666.662,-263.223"/>
</g>
<!-- KeypressController -->
<g id="node11" class="node"><title>KeypressController</title>
<ellipse fill="none" stroke="green" cx="119" cy="-167" rx="103.238" ry="18.3848"/>
<text text-anchor="middle" x="119" y="-163.4" font-family="Times Roman,serif" font-size="14.00">KeypressController</text>
</g>
<!-- KeypressView&#45;&gt;KeypressController -->
<g id="edge34" class="edge"><title>KeypressView&#45;&gt;KeypressController</title>
<path fill="none" stroke="black" d="M279.737,-225.307C249.079,-214.186 207.683,-199.169 174.579,-187.161"/>
<polygon fill="black" stroke="black" points="175.63,-183.819 165.036,-183.699 173.243,-190.4 175.63,-183.819"/>
</g>
<!-- KeypressModel -->
<g id="node16" class="node"><title>KeypressModel</title>
<ellipse fill="none" stroke="blue" cx="323" cy="-167" rx="82.939" ry="18.3848"/>
<text text-anchor="middle" x="323" y="-163.4" font-family="Times Roman,serif" font-size="14.00">KeypressModel</text>
</g>
<!-- KeypressView&#45;&gt;KeypressModel -->
<g id="edge32" class="edge"><title>KeypressView&#45;&gt;KeypressModel</title>
<path fill="none" stroke="black" d="M323,-222.327C323,-214.264 323,-204.648 323,-195.711"/>
<polygon fill="black" stroke="black" points="326.5,-195.667 323,-185.667 319.5,-195.667 326.5,-195.667"/>
</g>
<!-- Note -->
<g id="node41" class="node"><title>Note</title>
<ellipse fill="none" stroke="black" cx="468" cy="-19" rx="34.8574" ry="18.3848"/>
<text text-anchor="middle" x="468" y="-15.4" font-family="Times Roman,serif" font-size="14.00">Note</text>
</g>
<!-- NoteView&#45;&gt;Note -->
<g id="edge40" class="edge"><title>NoteView&#45;&gt;Note</title>
<path fill="none" stroke="black" d="M468,-74.3267C468,-66.2639 468,-56.6477 468,-47.7115"/>
<polygon fill="black" stroke="black" points="471.5,-47.6673 468,-37.6674 464.5,-47.6674 471.5,-47.6673"/>
</g>
<!-- NoteModel -->
<g id="node15" class="node"><title>NoteModel</title>
<ellipse fill="none" stroke="blue" cx="608" cy="-93" rx="63.1385" ry="18.3848"/>
<text text-anchor="middle" x="608" y="-89.4" font-family="Times Roman,serif" font-size="14.00">NoteModel</text>
</g>
<!-- RandomTuneModel -->
<g id="node18" class="node"><title>RandomTuneModel</title>
<ellipse fill="none" stroke="blue" cx="676" cy="-167" rx="103.238" ry="18.3848"/>
<text text-anchor="middle" x="676" y="-163.4" font-family="Times Roman,serif" font-size="14.00">RandomTuneModel</text>
</g>
<!-- TuneModel&#45;&gt;RandomTuneModel -->
<g id="edge27" class="edge"><title>TuneModel&#45;&gt;RandomTuneModel</title>
<path fill="none" stroke="black" d="M702.168,-222.327C698.23,-214.001 693.509,-204.019 689.167,-194.84"/>
<polygon fill="black" stroke="black" points="692.269,-193.211 684.829,-185.667 685.941,-196.204 692.269,-193.211"/>
</g>
<!-- RandomTuneModel&#45;&gt;NoteModel -->
<g id="edge28" class="edge"><title>RandomTuneModel&#45;&gt;NoteModel</title>
<path fill="none" stroke="black" d="M659.191,-148.708C650.874,-139.657 640.695,-128.579 631.61,-118.693"/>
<polygon fill="black" stroke="black" points="633.959,-116.077 624.616,-111.082 628.805,-120.813 633.959,-116.077"/>
</g>
<!-- ScoreHero -->
<g id="node28" class="node"><title>ScoreHero</title>
<ellipse fill="none" stroke="black" cx="175" cy="-463" rx="62.2254" ry="18.3848"/>
<text text-anchor="middle" x="175" y="-459.4" font-family="Times Roman,serif" font-size="14.00">ScoreHero</text>
</g>
<!-- ScoreHero&#45;&gt;AppView -->
<g id="edge19" class="edge"><title>ScoreHero&#45;&gt;AppView</title>
<path fill="none" stroke="black" d="M185.135,-444.708C189.915,-436.08 195.715,-425.611 200.992,-416.088"/>
<polygon fill="black" stroke="black" points="204.055,-417.782 205.84,-407.338 197.932,-414.389 204.055,-417.782"/>
</g>
<!-- ScoreHero&#45;&gt;AppController -->
<g id="edge17" class="edge"><title>ScoreHero&#45;&gt;AppController</title>
<path fill="none" stroke="black" d="M164.028,-444.466C159.676,-436.077 155.191,-425.85 153,-416 148.56,-396.043 146.913,-389.517 153,-370 156.162,-359.862 161.918,-349.945 168.01,-341.386"/>
<polygon fill="black" stroke="black" points="170.872,-343.403 174.13,-333.322 165.296,-339.171 170.872,-343.403"/>
</g>
</g>
</svg>
