<?xml version="1.0" encoding="UTF-8" standalone="no"?>
<!DOCTYPE svg PUBLIC "-//W3C//DTD SVG 1.1//EN"
 "http://www.w3.org/Graphics/SVG/1.1/DTD/svg11.dtd">
<!-- Generated by graphviz version 2.26.3 (20100126.1600)
 -->
<!-- Title: scorehero Pages: 1 -->
<svg width="916pt" height="432pt"
 viewBox="0.00 0.00 916.00 432.00" xmlns="http://www.w3.org/2000/svg" xmlns:xlink="http://www.w3.org/1999/xlink">
<g id="graph1" class="graph" transform="scale(1 1) rotate(0) translate(4 428)">
<title>scorehero</title>
<polygon fill="white" stroke="white" points="-4,5 -4,-428 913,-428 913,5 -4,5"/>
<g id="graph8" class="cluster"><title>clusterAppTriad</title>
<polygon fill="none" stroke="black" points="44,-230 44,-358 218,-358 218,-230 44,-230"/>
</g>
<g id="graph10" class="cluster"><title>clusterKeypressTriad</title>
<polygon fill="none" stroke="black" points="8,-82 8,-210 414,-210 414,-82 8,-82"/>
</g>
<g id="graph12" class="cluster"><title>clusterTuneTriad</title>
<polygon fill="none" stroke="black" points="572,-82 572,-210 900,-210 900,-82 572,-82"/>
</g>
<g id="graph14" class="cluster"><title>clusterNodeDuad</title>
<polygon fill="none" stroke="black" points="422,-8 422,-136 564,-136 564,-8 422,-8"/>
</g>
<!-- AppView -->
<g id="node3" class="node"><title>AppView</title>
<ellipse fill="none" stroke="red" cx="143" cy="-331" rx="53.9477" ry="18.3848"/>
<text text-anchor="middle" x="143" y="-327.4" font-family="Times Roman,serif" font-size="14.00">AppView</text>
</g>
<!-- StaveView -->
<g id="node4" class="node"><title>StaveView</title>
<ellipse fill="none" stroke="red" cx="297" cy="-257" rx="63.8479" ry="18.3848"/>
<text text-anchor="middle" x="297" y="-253.4" font-family="Times Roman,serif" font-size="14.00">StaveView</text>
</g>
<!-- AppView&#45;&gt;StaveView -->
<g id="edge31" class="edge"><title>AppView&#45;&gt;StaveView</title>
<path fill="none" stroke="black" d="M174.536,-315.846C197.734,-304.699 229.51,-289.43 254.881,-277.239"/>
<polygon fill="black" stroke="black" points="256.412,-280.386 263.91,-272.9 253.381,-274.077 256.412,-280.386"/>
</g>
<!-- AppController -->
<g id="node10" class="node"><title>AppController</title>
<ellipse fill="none" stroke="green" cx="131" cy="-257" rx="79.196" ry="18.3848"/>
<text text-anchor="middle" x="131" y="-253.4" font-family="Times Roman,serif" font-size="14.00">AppController</text>
</g>
<!-- AppView&#45;&gt;AppController -->
<g id="edge10" class="edge"><title>AppView&#45;&gt;AppController</title>
<path fill="none" stroke="black" d="M139.972,-312.327C138.664,-304.264 137.105,-294.648 135.656,-285.711"/>
<polygon fill="black" stroke="black" points="139.083,-284.978 134.027,-275.667 132.173,-286.099 139.083,-284.978"/>
</g>
<!-- TuneView -->
<g id="node5" class="node"><title>TuneView</title>
<ellipse fill="none" stroke="red" cx="651" cy="-183" rx="58.8978" ry="18.3848"/>
<text text-anchor="middle" x="651" y="-179.4" font-family="Times Roman,serif" font-size="14.00">TuneView</text>
</g>
<!-- StaveView&#45;&gt;TuneView -->
<g id="edge33" class="edge"><title>StaveView&#45;&gt;TuneView</title>
<path fill="none" stroke="black" d="M349.234,-246.081C413.902,-232.563 523.777,-209.595 591.594,-195.418"/>
<polygon fill="black" stroke="black" points="592.621,-198.779 601.693,-193.307 591.189,-191.927 592.621,-198.779"/>
</g>
<!-- KeypressView -->
<g id="node6" class="node"><title>KeypressView</title>
<ellipse fill="none" stroke="red" cx="297" cy="-183" rx="79.196" ry="18.3848"/>
<text text-anchor="middle" x="297" y="-179.4" font-family="Times Roman,serif" font-size="14.00">KeypressView</text>
</g>
<!-- StaveView&#45;&gt;KeypressView -->
<g id="edge35" class="edge"><title>StaveView&#45;&gt;KeypressView</title>
<path fill="none" stroke="black" d="M297,-238.327C297,-230.264 297,-220.648 297,-211.711"/>
<polygon fill="black" stroke="black" points="300.5,-211.667 297,-201.667 293.5,-211.667 300.5,-211.667"/>
</g>
<!-- NoteView -->
<g id="node7" class="node"><title>NoteView</title>
<ellipse fill="none" stroke="red" cx="495" cy="-109" rx="58.8978" ry="18.3848"/>
<text text-anchor="middle" x="495" y="-105.4" font-family="Times Roman,serif" font-size="14.00">NoteView</text>
</g>
<!-- TuneView&#45;&gt;NoteView -->
<g id="edge39" class="edge"><title>TuneView&#45;&gt;NoteView</title>
<path fill="none" stroke="black" d="M618.297,-167.487C594.585,-156.239 562.325,-140.936 536.751,-128.805"/>
<polygon fill="black" stroke="black" points="538.195,-125.616 527.66,-124.492 535.195,-131.941 538.195,-125.616"/>
</g>
<!-- TuneController -->
<g id="node12" class="node"><title>TuneController</title>
<ellipse fill="none" stroke="green" cx="664" cy="-109" rx="84.1457" ry="18.3848"/>
<text text-anchor="middle" x="664" y="-105.4" font-family="Times Roman,serif" font-size="14.00">TuneController</text>
</g>
<!-- TuneView&#45;&gt;TuneController -->
<g id="edge22" class="edge"><title>TuneView&#45;&gt;TuneController</title>
<path fill="none" stroke="black" d="M654.28,-164.327C655.697,-156.264 657.386,-146.648 658.956,-137.711"/>
<polygon fill="black" stroke="black" points="662.437,-138.122 660.721,-127.667 655.543,-136.911 662.437,-138.122"/>
</g>
<!-- TuneModel -->
<g id="node17" class="node"><title>TuneModel</title>
<ellipse fill="none" stroke="blue" cx="829" cy="-109" rx="63.1385" ry="18.3848"/>
<text text-anchor="middle" x="829" y="-105.4" font-family="Times Roman,serif" font-size="14.00">TuneModel</text>
</g>
<!-- TuneView&#45;&gt;TuneModel -->
<g id="edge20" class="edge"><title>TuneView&#45;&gt;TuneModel</title>
<path fill="none" stroke="black" d="M686.593,-168.203C714.332,-156.671 753.054,-140.573 783.12,-128.074"/>
<polygon fill="black" stroke="black" points="784.662,-131.223 792.552,-124.153 781.975,-124.76 784.662,-131.223"/>
</g>
<!-- KeypressController -->
<g id="node11" class="node"><title>KeypressController</title>
<ellipse fill="none" stroke="green" cx="303" cy="-109" rx="103.238" ry="18.3848"/>
<text text-anchor="middle" x="303" y="-105.4" font-family="Times Roman,serif" font-size="14.00">KeypressController</text>
</g>
<!-- KeypressView&#45;&gt;KeypressController -->
<g id="edge16" class="edge"><title>KeypressView&#45;&gt;KeypressController</title>
<path fill="none" stroke="black" d="M298.514,-164.327C299.168,-156.264 299.947,-146.648 300.672,-137.711"/>
<polygon fill="black" stroke="black" points="304.167,-137.918 301.486,-127.667 297.19,-137.352 304.167,-137.918"/>
</g>
<!-- KeypressModel -->
<g id="node16" class="node"><title>KeypressModel</title>
<ellipse fill="none" stroke="blue" cx="99" cy="-109" rx="82.939" ry="18.3848"/>
<text text-anchor="middle" x="99" y="-105.4" font-family="Times Roman,serif" font-size="14.00">KeypressModel</text>
</g>
<!-- KeypressView&#45;&gt;KeypressModel -->
<g id="edge14" class="edge"><title>KeypressView&#45;&gt;KeypressModel</title>
<path fill="none" stroke="black" d="M255.009,-167.307C224.764,-156.003 183.75,-140.674 151.365,-128.571"/>
<polygon fill="black" stroke="black" points="152.205,-125.148 141.613,-124.926 149.755,-131.705 152.205,-125.148"/>
</g>
<!-- NoteModel -->
<g id="node15" class="node"><title>NoteModel</title>
<ellipse fill="none" stroke="blue" cx="493" cy="-35" rx="63.1385" ry="18.3848"/>
<text text-anchor="middle" x="493" y="-31.4" font-family="Times Roman,serif" font-size="14.00">NoteModel</text>
</g>
<!-- NoteView&#45;&gt;NoteModel -->
<g id="edge26" class="edge"><title>NoteView&#45;&gt;NoteModel</title>
<path fill="none" stroke="black" d="M494.495,-90.3267C494.277,-82.2639 494.018,-72.6477 493.776,-63.7115"/>
<polygon fill="black" stroke="black" points="497.274,-63.5691 493.505,-53.6674 490.276,-63.7583 497.274,-63.5691"/>
</g>
<!-- KeypressModel&#45;&gt;AppController -->
<g id="edge43" class="edge"><title>KeypressModel&#45;&gt;AppController</title>
<path fill="none" stroke="purple" d="M103.02,-127.592C108.509,-152.977 118.399,-198.718 124.83,-228.462"/>
<polygon fill="purple" stroke="purple" points="121.413,-229.221 126.947,-238.256 128.255,-227.742 121.413,-229.221"/>
</g>
<!-- TuneModel&#45;&gt;NoteModel -->
<g id="edge37" class="edge"><title>TuneModel&#45;&gt;NoteModel</title>
<path fill="none" stroke="black" d="M792.427,-93.8111C781.201,-89.5506 768.717,-85.2108 757,-82 691.515,-64.0543 614.956,-51.3012 561.197,-43.649"/>
<polygon fill="black" stroke="black" points="561.485,-40.1552 551.096,-42.233 560.513,-47.0875 561.485,-40.1552"/>
</g>
<!-- ScoreHero -->
<g id="node33" class="node"><title>ScoreHero</title>
<ellipse fill="none" stroke="black" cx="143" cy="-405" rx="62.2254" ry="18.3848"/>
<text text-anchor="middle" x="143" y="-401.4" font-family="Times Roman,serif" font-size="14.00">ScoreHero</text>
</g>
<!-- ScoreHero&#45;&gt;AppView -->
<g id="edge29" class="edge"><title>ScoreHero&#45;&gt;AppView</title>
<path fill="none" stroke="black" d="M143,-386.327C143,-378.264 143,-368.648 143,-359.711"/>
<polygon fill="black" stroke="black" points="146.5,-359.667 143,-349.667 139.5,-359.667 146.5,-359.667"/>
</g>
</g>
</svg>
