<?xml version="1.0" encoding="UTF-8" standalone="no"?>
<!DOCTYPE svg PUBLIC "-//W3C//DTD SVG 1.1//EN"
 "http://www.w3.org/Graphics/SVG/1.1/DTD/svg11.dtd">
<!-- Generated by graphviz version 2.26.3 (20100126.1600)
 -->
<!-- Title: scorehero Pages: 1 -->
<svg width="916pt" height="432pt"
 viewBox="0.00 0.00 916.00 432.00" xmlns="http://www.w3.org/2000/svg" xmlns:xlink="http://www.w3.org/1999/xlink">
<g id="graph1" class="graph" transform="scale(1 1) rotate(0) translate(4 428)">
<title>scorehero</title>
<polygon fill="white" stroke="white" points="-4,5 -4,-428 913,-428 913,5 -4,5"/>
<g id="graph8" class="cluster"><title>clusterAppTriad</title>
<polygon fill="none" stroke="black" points="189,-230 189,-358 363,-358 363,-230 189,-230"/>
</g>
<g id="graph10" class="cluster"><title>clusterKeypressTriad</title>
<polygon fill="none" stroke="black" points="494,-82 494,-210 900,-210 900,-82 494,-82"/>
</g>
<g id="graph12" class="cluster"><title>clusterTuneTriad</title>
<polygon fill="none" stroke="black" points="8,-82 8,-210 336,-210 336,-82 8,-82"/>
</g>
<g id="graph14" class="cluster"><title>clusterNodeDuad</title>
<polygon fill="none" stroke="black" points="344,-8 344,-136 486,-136 486,-8 344,-8"/>
</g>
<!-- AppView -->
<g id="node3" class="node"><title>AppView</title>
<ellipse fill="none" stroke="red" cx="288" cy="-331" rx="53.9477" ry="18.3848"/>
<text text-anchor="middle" x="288" y="-327.4" font-family="Times Roman,serif" font-size="14.00">AppView</text>
</g>
<!-- StaveView -->
<g id="node4" class="node"><title>StaveView</title>
<ellipse fill="none" stroke="red" cx="437" cy="-257" rx="63.8479" ry="18.3848"/>
<text text-anchor="middle" x="437" y="-253.4" font-family="Times Roman,serif" font-size="14.00">StaveView</text>
</g>
<!-- AppView&#45;&gt;StaveView -->
<g id="edge31" class="edge"><title>AppView&#45;&gt;StaveView</title>
<path fill="none" stroke="black" d="M318.873,-315.667C341.095,-304.631 371.312,-289.624 395.622,-277.55"/>
<polygon fill="black" stroke="black" points="397.221,-280.664 404.62,-273.081 394.107,-274.395 397.221,-280.664"/>
</g>
<!-- AppController -->
<g id="node10" class="node"><title>AppController</title>
<ellipse fill="none" stroke="green" cx="276" cy="-257" rx="79.196" ry="18.3848"/>
<text text-anchor="middle" x="276" y="-253.4" font-family="Times Roman,serif" font-size="14.00">AppController</text>
</g>
<!-- AppView&#45;&gt;AppController -->
<g id="edge10" class="edge"><title>AppView&#45;&gt;AppController</title>
<path fill="none" stroke="black" d="M284.972,-312.327C283.664,-304.264 282.105,-294.648 280.656,-285.711"/>
<polygon fill="black" stroke="black" points="284.083,-284.978 279.027,-275.667 277.173,-286.099 284.083,-284.978"/>
</g>
<!-- TuneView -->
<g id="node5" class="node"><title>TuneView</title>
<ellipse fill="none" stroke="red" cx="267" cy="-183" rx="58.8978" ry="18.3848"/>
<text text-anchor="middle" x="267" y="-179.4" font-family="Times Roman,serif" font-size="14.00">TuneView</text>
</g>
<!-- StaveView&#45;&gt;TuneView -->
<g id="edge33" class="edge"><title>StaveView&#45;&gt;TuneView</title>
<path fill="none" stroke="black" d="M401.362,-241.487C375.033,-230.026 339.033,-214.355 310.923,-202.12"/>
<polygon fill="black" stroke="black" points="312.284,-198.895 301.718,-198.113 309.49,-205.313 312.284,-198.895"/>
</g>
<!-- KeypressView -->
<g id="node6" class="node"><title>KeypressView</title>
<ellipse fill="none" stroke="red" cx="605" cy="-183" rx="79.196" ry="18.3848"/>
<text text-anchor="middle" x="605" y="-179.4" font-family="Times Roman,serif" font-size="14.00">KeypressView</text>
</g>
<!-- StaveView&#45;&gt;KeypressView -->
<g id="edge35" class="edge"><title>StaveView&#45;&gt;KeypressView</title>
<path fill="none" stroke="black" d="M472.218,-241.487C497.264,-230.455 531.165,-215.523 558.443,-203.507"/>
<polygon fill="black" stroke="black" points="560.049,-206.624 567.789,-199.39 557.227,-200.218 560.049,-206.624"/>
</g>
<!-- NoteView -->
<g id="node7" class="node"><title>NoteView</title>
<ellipse fill="none" stroke="red" cx="413" cy="-109" rx="58.8978" ry="18.3848"/>
<text text-anchor="middle" x="413" y="-105.4" font-family="Times Roman,serif" font-size="14.00">NoteView</text>
</g>
<!-- TuneView&#45;&gt;NoteView -->
<g id="edge39" class="edge"><title>TuneView&#45;&gt;NoteView</title>
<path fill="none" stroke="black" d="M298.321,-167.125C320.068,-156.103 349.236,-141.319 372.713,-129.419"/>
<polygon fill="black" stroke="black" points="374.394,-132.491 381.731,-124.849 371.229,-126.248 374.394,-132.491"/>
</g>
<!-- TuneController -->
<g id="node12" class="node"><title>TuneController</title>
<ellipse fill="none" stroke="green" cx="100" cy="-109" rx="84.1457" ry="18.3848"/>
<text text-anchor="middle" x="100" y="-105.4" font-family="Times Roman,serif" font-size="14.00">TuneController</text>
</g>
<!-- TuneView&#45;&gt;TuneController -->
<g id="edge22" class="edge"><title>TuneView&#45;&gt;TuneController</title>
<path fill="none" stroke="black" d="M232.802,-167.846C208.047,-156.877 174.285,-141.917 146.999,-129.826"/>
<polygon fill="black" stroke="black" points="148.203,-126.531 137.642,-125.68 145.367,-132.931 148.203,-126.531"/>
</g>
<!-- TuneModel -->
<g id="node17" class="node"><title>TuneModel</title>
<ellipse fill="none" stroke="blue" cx="265" cy="-109" rx="63.1385" ry="18.3848"/>
<text text-anchor="middle" x="265" y="-105.4" font-family="Times Roman,serif" font-size="14.00">TuneModel</text>
</g>
<!-- TuneView&#45;&gt;TuneModel -->
<g id="edge20" class="edge"><title>TuneView&#45;&gt;TuneModel</title>
<path fill="none" stroke="black" d="M266.495,-164.327C266.277,-156.264 266.018,-146.648 265.776,-137.711"/>
<polygon fill="black" stroke="black" points="269.274,-137.569 265.505,-127.667 262.276,-137.758 269.274,-137.569"/>
</g>
<!-- KeypressController -->
<g id="node11" class="node"><title>KeypressController</title>
<ellipse fill="none" stroke="green" cx="605" cy="-109" rx="103.238" ry="18.3848"/>
<text text-anchor="middle" x="605" y="-105.4" font-family="Times Roman,serif" font-size="14.00">KeypressController</text>
</g>
<!-- KeypressView&#45;&gt;KeypressController -->
<g id="edge16" class="edge"><title>KeypressView&#45;&gt;KeypressController</title>
<path fill="none" stroke="black" d="M605,-164.327C605,-156.264 605,-146.648 605,-137.711"/>
<polygon fill="black" stroke="black" points="608.5,-137.667 605,-127.667 601.5,-137.667 608.5,-137.667"/>
</g>
<!-- KeypressModel -->
<g id="node16" class="node"><title>KeypressModel</title>
<ellipse fill="none" stroke="blue" cx="809" cy="-109" rx="82.939" ry="18.3848"/>
<text text-anchor="middle" x="809" y="-105.4" font-family="Times Roman,serif" font-size="14.00">KeypressModel</text>
</g>
<!-- KeypressView&#45;&gt;KeypressModel -->
<g id="edge14" class="edge"><title>KeypressView&#45;&gt;KeypressModel</title>
<path fill="none" stroke="black" d="M648.263,-167.307C679.666,-155.915 722.336,-140.437 755.82,-128.291"/>
<polygon fill="black" stroke="black" points="757.241,-131.499 765.448,-124.798 754.854,-124.918 757.241,-131.499"/>
</g>
<!-- NoteModel -->
<g id="node15" class="node"><title>NoteModel</title>
<ellipse fill="none" stroke="blue" cx="415" cy="-35" rx="63.1385" ry="18.3848"/>
<text text-anchor="middle" x="415" y="-31.4" font-family="Times Roman,serif" font-size="14.00">NoteModel</text>
</g>
<!-- NoteView&#45;&gt;NoteModel -->
<g id="edge26" class="edge"><title>NoteView&#45;&gt;NoteModel</title>
<path fill="none" stroke="black" d="M413.505,-90.3267C413.723,-82.2639 413.982,-72.6477 414.224,-63.7115"/>
<polygon fill="black" stroke="black" points="417.724,-63.7583 414.495,-53.6674 410.726,-63.5691 417.724,-63.7583"/>
</g>
<!-- TuneModel&#45;&gt;NoteModel -->
<g id="edge37" class="edge"><title>TuneModel&#45;&gt;NoteModel</title>
<path fill="none" stroke="black" d="M297.548,-92.9431C319.835,-81.9479 349.581,-67.2734 373.56,-55.4436"/>
<polygon fill="black" stroke="black" points="375.354,-58.4614 382.774,-50.8983 372.257,-52.1838 375.354,-58.4614"/>
</g>
<!-- ScoreHero -->
<g id="node33" class="node"><title>ScoreHero</title>
<ellipse fill="none" stroke="black" cx="288" cy="-405" rx="62.2254" ry="18.3848"/>
<text text-anchor="middle" x="288" y="-401.4" font-family="Times Roman,serif" font-size="14.00">ScoreHero</text>
</g>
<!-- ScoreHero&#45;&gt;AppView -->
<g id="edge29" class="edge"><title>ScoreHero&#45;&gt;AppView</title>
<path fill="none" stroke="black" d="M288,-386.327C288,-378.264 288,-368.648 288,-359.711"/>
<polygon fill="black" stroke="black" points="291.5,-359.667 288,-349.667 284.5,-359.667 291.5,-359.667"/>
</g>
</g>
</svg>
